# xmcd
#
# Track frame offsets:
#	150
#	15225
#	35333
#	55584
#	71601
#	85508
#	101093
#	120251
#	137821
#	154764
#	180804
#	193096
#
# Disc length: 2714 seconds
#
# Revision: 0
# Processed by: cddbd v1.5.2PL0 Copyright (c) Steve Scherf et al.
# Submitted via: dBpowerAMP V4.0
#
DISCID=870a980c
DTITLE=KENNY NEAL - Walking On Fire
DYEAR=1991
DGENRE=Blues
TTITLE0=Look But Don't Touch
TTITLE1=The Truth Hurts
TTITLE2=I Put My Trust In You
TTITLE3=Blues Stew
TTITLE4=Morning After
TTITLE5=I.O.U.
TTITLE6=My Only Good Thing
TTITLE7=I Been Missing You Too
TTITLE8=Cought In The Jaws Of A Vise
TTITLE9=Things Got To Get Better
TTITLE10=Walking On Fire
TTITLE11=Bad Luck Card
EXTD=KENNY NEAL-Walking On Fire
EXTT0=
EXTT1=
EXTT2=
EXTT3=
EXTT4=
EXTT5=
EXTT6=
EXTT7=
EXTT8=
EXTT9=
EXTT10=
EXTT11=
PLAYORDER=
